HIERARCHY
ROOT root
{
	OFFSET 0.000000 0.000000 0.000000
	CHANNELS 6 Xposition Yposition Zposition Zrotation Yrotation Xrotation
	JOINT lhip
	{
		OFFSET 0.058581 -0.082280 -0.017664
		CHANNELS 3 Zrotation Yrotation Xrotation
		JOINT lknee
		{
			OFFSET 0.043451 -0.386469 0.008037
			CHANNELS 3 Zrotation Yrotation Xrotation
			JOINT lankle
			{
				OFFSET -0.014790 -0.426874 -0.037428
				CHANNELS 3 Zrotation Yrotation Xrotation
				JOINT ltoe
				{
					OFFSET 0.041054 -0.060286 0.122042
					CHANNELS 3 Zrotation Yrotation Xrotation
					End Site
					{
						OFFSET 0.000000 0.000000 0.000000
					}
				}
			}
		}
	}
	JOINT rhip
	{
		OFFSET -0.060310 -0.090513 -0.013543
		CHANNELS 3 Zrotation Yrotation Xrotation
		JOINT rknee
		{
			OFFSET -0.043257 -0.383688 -0.004843
			CHANNELS 3 Zrotation Yrotation Xrotation
			JOINT rankle
			{
				OFFSET 0.019056 -0.420046 -0.034562
				CHANNELS 3 Zrotation Yrotation Xrotation
				JOINT rtoe
				{
					OFFSET -0.034840 -0.062106 0.130323
					CHANNELS 3 Zrotation Yrotation Xrotation
					End Site
					{
						OFFSET 0.000000 0.000000 0.000000
					}
				}
			}
		}
	}
	JOINT lowerback
	{
		OFFSET 0.004439 0.124404 -0.038385
		CHANNELS 3 Zrotation Yrotation Xrotation
		JOINT upperback
		{
			OFFSET 0.004488 0.137956 0.026820
			CHANNELS 3 Zrotation Yrotation Xrotation
			JOINT chest
			{
				OFFSET -0.002265 0.056032 0.002855
				CHANNELS 3 Zrotation Yrotation Xrotation
				JOINT lowerneck
				{
					OFFSET -0.013390 0.211636 -0.033468
					CHANNELS 3 Zrotation Yrotation Xrotation
					JOINT upperneck
					{
						OFFSET 0.010113 0.088937 0.050410
						CHANNELS 3 Zrotation Yrotation Xrotation
						End Site
						{
							OFFSET 0.000000 0.000000 0.000000
						}
					}
				}
				JOINT lclavicle
				{
					OFFSET 0.071702 0.114000 -0.018898
					CHANNELS 3 Zrotation Yrotation Xrotation
					JOINT lshoulder
					{
						OFFSET 0.122921 0.045205 -0.019046
						CHANNELS 3 Zrotation Yrotation Xrotation
						JOINT lelbow
						{
							OFFSET 0.255332 -0.015649 -0.022946
							CHANNELS 3 Zrotation Yrotation Xrotation
							JOINT lwrist
							{
								OFFSET 0.265709 0.012698 -0.007375
								CHANNELS 3 Zrotation Yrotation Xrotation
								End Site
								{
									OFFSET 0.000000 0.000000 0.000000
								}
							}
						}
					}
				}
				JOINT rclavicle
				{
					OFFSET -0.082954 0.112472 -0.023707
					CHANNELS 3 Zrotation Yrotation Xrotation
					JOINT rshoulder
					{
						OFFSET -0.113228 0.046853 -0.008472
						CHANNELS 3 Zrotation Yrotation Xrotation
						JOINT relbow
						{
							OFFSET -0.260127 -0.014369 -0.031269
							CHANNELS 3 Zrotation Yrotation Xrotation
							JOINT rwrist
							{
								OFFSET -0.269108 0.006794 -0.006027
								CHANNELS 3 Zrotation Yrotation Xrotation
								End Site
								{
									OFFSET 0.000000 0.000000 0.000000
								}
							}
						}
					}
				}
			}
		}
	}
}
MOTION
Frames: 5
Frame Time: 0.033333
2.211229 -0.139471 1.004679 49.050298 -2.508936 79.440164 1.263781 -2.330516 -10.881669 -9.585265 -0.031787 45.669601 1.788229 5.701760 -6.698616 0.000000 -0.000000 0.000000 4.278954 -0.363550 2.843478 -0.211353 3.558096 23.134850 -2.325764 -7.913667 -13.512432 0.000000 -0.000000 0.000000 -1.829193 3.390354 14.861594 2.384147 -0.695734 -1.602250 0.421548 -1.036033 2.039230 4.102376 -0.992547 -7.404222 -2.695548 -6.028184 10.610418 -31.139745 5.260796 1.606557 -54.668083 -4.051778 9.537252 5.576831 -24.617535 10.690365 -6.950753 -2.503271 -4.735659 31.478584 2.657407 -0.625567 49.774810 9.016492 11.485275 -14.666030 19.117795 -13.615534 6.008511 2.587474 -11.078517 
2.231118 -0.153322 1.006944 47.767137 -2.629474 79.960718 1.122867 -2.445000 -11.927590 -7.225006 0.305207 36.356294 2.704038 7.317562 -7.734740 0.000000 -0.000000 0.000000 3.600517 -1.067691 4.856635 -0.001500 4.264209 21.042888 -1.449775 -7.242025 -13.528240 0.000000 -0.000000 0.000000 -1.216605 4.184340 14.505743 1.852840 -0.349392 -1.649195 0.126035 -0.519211 2.080964 3.794198 -1.121791 -7.218415 -3.017996 -6.698867 10.905863 -31.171970 5.510440 1.200920 -54.823913 -3.301986 9.668084 5.608273 -23.140964 10.448767 -6.863446 -2.296595 -4.095102 30.931256 2.838701 -0.736321 49.492281 9.925022 11.668419 -14.560341 20.527001 -13.716338 5.520965 3.002992 -10.660290 
2.250408 -0.166684 1.007351 46.657318 -2.515385 80.764443 0.905437 -2.111718 -12.396425 -5.236658 -0.603970 25.287018 2.138769 7.810689 -6.602913 0.000000 -0.000000 0.000000 3.098407 -1.522635 6.323490 0.276591 5.113151 19.558032 -1.072529 -6.591830 -13.736937 0.000000 -0.000000 0.000000 -0.575161 4.584958 13.810255 1.393648 -0.064993 -1.284114 -0.088335 0.009374 1.790654 3.356016 -1.129628 -6.680300 -3.104315 -7.263567 10.299075 -31.249856 5.547829 0.975048 -54.802837 -2.386254 9.719186 5.638312 -22.220937 9.881302 -6.735811 -1.905551 -3.618262 30.363851 3.324179 -0.433226 48.915697 10.434167 11.774115 -14.316213 22.686427 -13.542751 5.228039 3.125890 -10.022162 
2.268846 -0.179448 1.005278 45.603942 -2.204188 81.803625 0.796399 -1.106331 -12.692432 -3.863212 -1.167339 13.899264 1.447991 7.508610 -5.164513 0.000000 -0.000000 0.000000 2.850320 -1.656026 7.286760 0.454684 5.711269 18.442301 -0.384065 -5.948401 -14.351396 0.000000 -0.000000 0.000000 -0.118860 4.584114 13.636106 1.072983 0.362446 -1.723102 -0.200931 0.447071 1.394166 3.165657 -0.667815 -7.021186 -3.402685 -7.949985 11.071926 -31.170715 6.401395 0.379021 -54.813852 -1.760064 9.840286 5.349024 -21.408336 9.736453 -6.413114 -2.096718 -3.018846 29.960982 3.684013 -0.497989 48.627831 11.261845 12.186945 -14.161452 23.678194 -13.196598 5.032559 3.917919 -9.260157 
2.287971 -0.192498 1.000142 44.683606 -1.860362 82.596747 0.738316 -0.466667 -12.056300 -2.766513 -2.640572 2.581165 0.424792 6.307100 -5.397707 0.000000 -0.000000 0.000000 2.594110 -1.937734 8.275239 0.717604 6.533245 17.948515 0.133340 -5.466271 -15.809550 0.000000 -0.000000 0.000000 0.322830 4.542159 13.272102 0.802728 0.717534 -1.658208 -0.218864 0.802659 1.161299 2.886934 -0.193646 -7.269863 -3.945095 -8.969413 11.620968 -31.357497 6.654074 0.128264 -54.648379 -1.152676 9.825535 5.340699 -21.216250 8.931536 -5.620774 -2.312548 -2.936988 29.756777 3.981078 -0.560528 48.109114 12.019012 12.268042 -13.951375 25.146091 -12.847634 4.623866 4.263397 -8.551682 
